<?xml version="1.0" encoding="UTF-8" standalone="no"?>
<svg
   width="24"
   height="24"
   viewBox="0 0 24 24"
   fill="none"
   stroke="currentColor"
   stroke-width="2"
   stroke-linecap="round"
   stroke-linejoin="round"
   class="feather feather-menu"
   version="1.1"
   id="svg3"
   sodipodi:docname="menu.svg"
   inkscape:version="1.4 (e7c3feb100, 2024-10-09)"
   xmlns:inkscape="http://www.inkscape.org/namespaces/inkscape"
   xmlns:sodipodi="http://sodipodi.sourceforge.net/DTD/sodipodi-0.dtd"
   xmlns="http://www.w3.org/2000/svg"
   xmlns:svg="http://www.w3.org/2000/svg">
  <defs
     id="defs3" />
  <sodipodi:namedview
     id="namedview3"
     pagecolor="#ffffff"
     bordercolor="#000000"
     borderopacity="0.25"
     inkscape:showpageshadow="2"
     inkscape:pageopacity="0.0"
     inkscape:pagecheckerboard="0"
     inkscape:deskcolor="#d1d1d1"
     inkscape:zoom="23.629152"
     inkscape:cx="5.459358"
     inkscape:cy="11.003357"
     inkscape:window-width="1910"
     inkscape:window-height="1009"
     inkscape:window-x="0"
     inkscape:window-y="35"
     inkscape:window-maximized="1"
     inkscape:current-layer="svg3" />
  <line
     x1="3.0561881"
     y1="11.592415"
     x2="21.056189"
     y2="11.592415"
     id="line1-3" />
  <line
     x1="3.0561881"
     y1="5.5924144"
     x2="21.056189"
     y2="5.5924144"
     id="line2-6" />
  <line
     x1="3.0561881"
     y1="17.592415"
     x2="21.056189"
     y2="17.592415"
     id="line3-7" />
  <path
     style="fill:#ffffff;stroke-width:0.0598504"
     d="M 2.7459321,6.5237689 C 2.5843271,6.4658705 2.4360371,6.3663947 2.3281391,6.2435055 1.9057081,5.7623833 2.0380681,5.0371934 2.6057081,4.7227311 l 0.158709,-0.087922 h 9.2917709 9.291771 l 0.158709,0.087923 c 0.699832,0.3876943 0.699832,1.3516727 0,1.739367 l -0.158709,0.087923 -9.246883,0.00627 c -7.5097269,0.00509 -9.2672209,-0.00102 -9.3551439,-0.032519 z"
     id="path3-5" />
  <path
     style="fill:#ffffff;stroke-width:0.0598504"
     d="m 2.7584271,12.524221 c -0.340771,-0.117746 -0.567843,-0.370289 -0.656206,-0.729811 -0.04624,-0.188155 -0.04624,-0.215835 0,-0.40399 0.06126,-0.249232 0.216264,-0.482788 0.402127,-0.605898 0.292621,-0.193825 -0.461723,-0.179638 9.5518399,-0.179638 10.013562,0 9.259219,-0.01419 9.55184,0.179638 0.185863,0.12311 0.340871,0.356666 0.402126,0.605898 0.04624,0.188155 0.04624,0.215835 0,0.40399 -0.06126,0.249231 -0.216263,0.482787 -0.402126,0.605898 -0.292673,0.193858 0.463511,0.179733 -9.564753,0.178661 -8.7059969,-9.31e-4 -9.1364459,-0.0035 -9.2848479,-0.05475 z"
     id="path4-3" />
  <path
     style="fill:#ffffff;stroke-width:0.0598504"
     d="m 2.7459321,18.523769 c -0.161605,-0.0579 -0.309895,-0.157374 -0.417793,-0.280263 -0.422431,-0.481122 -0.290071,-1.206313 0.277569,-1.520776 l 0.158709,-0.08792 h 9.2917709 9.291771 l 0.158709,0.08792 c 0.699832,0.387695 0.699832,1.351674 0,1.739369 l -0.158709,0.08792 -9.246883,0.0063 c -7.5097269,0.0051 -9.2672209,-10e-4 -9.3551439,-0.03252 z"
     id="path5-5" />
  <line
     x1="3.0561881"
     y1="11.592415"
     x2="21.056189"
     y2="11.592415"
     id="line6-6" />
  <line
     x1="3.0561881"
     y1="5.5924144"
     x2="21.056189"
     y2="5.5924144"
     id="line7-2" />
  <line
     x1="3.0561881"
     y1="17.592415"
     x2="21.056189"
     y2="17.592415"
     id="line8-9" />
  <path
     style="fill:#ffffff;stroke-width:0.0598504"
     d="M 2.7459321,6.5237689 C 2.5843271,6.4658705 2.4360371,6.3663947 2.3281391,6.2435055 1.9057081,5.7623833 2.0380681,5.0371934 2.6057081,4.7227311 l 0.158709,-0.087922 h 9.2917709 9.291771 l 0.158709,0.087923 c 0.699832,0.3876943 0.699832,1.3516727 0,1.739367 l -0.158709,0.087923 -9.246883,0.00627 c -7.5097269,0.00509 -9.2672209,-0.00102 -9.3551439,-0.032519 z"
     id="path8-1" />
  <path
     style="fill:#ffffff;stroke-width:0.0598504"
     d="m 2.7584271,12.524221 c -0.340771,-0.117746 -0.567843,-0.370289 -0.656206,-0.729811 -0.04624,-0.188155 -0.04624,-0.215835 0,-0.40399 0.06126,-0.249232 0.216264,-0.482788 0.402127,-0.605898 0.292621,-0.193825 -0.461723,-0.179638 9.5518399,-0.179638 10.013562,0 9.259219,-0.01419 9.55184,0.179638 0.185863,0.12311 0.340871,0.356666 0.402126,0.605898 0.04624,0.188155 0.04624,0.215835 0,0.40399 -0.06126,0.249231 -0.216263,0.482787 -0.402126,0.605898 -0.292673,0.193858 0.463511,0.179733 -9.564753,0.178661 -8.7059969,-9.31e-4 -9.1364459,-0.0035 -9.2848479,-0.05475 z"
     id="path9-2" />
  <path
     style="fill:#ffffff;stroke-width:0.0598504"
     d="m 2.7459321,18.523769 c -0.161605,-0.0579 -0.309895,-0.157374 -0.417793,-0.280263 -0.422431,-0.481122 -0.290071,-1.206313 0.277569,-1.520776 l 0.158709,-0.08792 h 9.2917709 9.291771 l 0.158709,0.08792 c 0.699832,0.387695 0.699832,1.351674 0,1.739369 l -0.158709,0.08792 -9.246883,0.0063 c -7.5097269,0.0051 -9.2672209,-10e-4 -9.3551439,-0.03252 z"
     id="path10-7" />
</svg>
