<?xml version="1.0" encoding="UTF-8" standalone="no"?>
<svg
   width="24"
   height="24"
   viewBox="0 0 24 24"
   fill="none"
   stroke="currentColor"
   stroke-width="2"
   stroke-linecap="round"
   stroke-linejoin="round"
   class="feather feather-clipboard"
   version="1.1"
   id="svg1"
   sodipodi:docname="clipboard.svg"
   inkscape:version="1.4.3 (0d15f75042, 2025-12-25)"
   xmlns:inkscape="http://www.inkscape.org/namespaces/inkscape"
   xmlns:sodipodi="http://sodipodi.sourceforge.net/DTD/sodipodi-0.dtd"
   xmlns="http://www.w3.org/2000/svg"
   xmlns:svg="http://www.w3.org/2000/svg">
  <defs
     id="defs1" />
  <sodipodi:namedview
     id="namedview1"
     pagecolor="#ffffff"
     bordercolor="#000000"
     borderopacity="0.25"
     inkscape:showpageshadow="2"
     inkscape:pageopacity="0.0"
     inkscape:pagecheckerboard="0"
     inkscape:deskcolor="#d1d1d1"
     inkscape:zoom="34.5"
     inkscape:cx="11.985507"
     inkscape:cy="12"
     inkscape:window-width="1920"
     inkscape:window-height="1014"
     inkscape:window-x="0"
     inkscape:window-y="0"
     inkscape:window-maximized="1"
     inkscape:current-layer="svg1" />
  <path
     d="M16 4h2a2 2 0 0 1 2 2v14a2 2 0 0 1-2 2H6a2 2 0 0 1-2-2V6a2 2 0 0 1 2-2h2"
     id="path1" />
  <rect
     x="8"
     y="2"
     width="8"
     height="4"
     rx="1"
     ry="1"
     id="rect1" />
  <path
     style="fill:#ffffff;stroke:#000000;stroke-width:0.1;stroke-dasharray:none"
     d="M 5.7391304,22.969379 C 5.043597,22.907394 4.4056974,22.608509 3.9024909,22.108828 3.3844408,21.594408 3.0898691,20.957232 3.0286515,20.218659 2.9914754,19.770142 2.9914754,6.2298583 3.0286515,5.7813406 3.0577778,5.4299406 3.1449324,5.0783368 3.276146,4.7828849 3.4884747,4.3047875 3.9173294,3.8038783 4.362595,3.5138952 4.9747,3.1152563 5.4640026,3.0015727 6.5724638,3.0004588 L 7.0289855,3 7.0294139,2.8623188 C 7.0300788,2.6486168 7.1064461,2.371161 7.2388359,2.1014493 7.4095597,1.753642 7.7535641,1.4096181 8.1014493,1.238787 8.5865499,1.0005754 8.3446472,1.0144928 12,1.0144928 c 3.655353,0 3.41345,-0.013917 3.898551,0.2242942 0.347885,0.1708311 0.691889,0.514855 0.862613,0.8626623 0.13239,0.2697117 0.208757,0.5471675 0.209422,0.7608695 L 16.971014,3 l 0.456522,4.588e-4 c 1.108461,0.00111 1.597764,0.1147975 2.209869,0.5134364 0.314515,0.2048304 0.643869,0.5341851 0.8487,0.8486999 0.304364,0.4673478 0.437763,0.8675179 0.485742,1.4571391 0.0215,0.2641655 0.02806,2.5841522 0.02114,7.4701208 l -0.01004,7.086957 -0.063,0.255083 c -0.289084,1.170581 -1.118578,1.999163 -2.291139,2.28862 l -0.252003,0.06221 -6.188406,0.005 c -3.4036234,0.0027 -6.3057973,-0.0055 -6.4492756,-0.0183 z M 18.382757,20.937315 c 0.228844,-0.08562 0.468936,-0.325714 0.554558,-0.554558 L 19,20.215217 V 13 5.7847835 L 18.937315,5.6172432 C 18.851693,5.3883986 18.611601,5.1483067 18.382757,5.0626849 18.23013,5.00558 18.15984,5 17.593116,5 h -0.622102 l -4.28e-4,0.1376812 c -6.65e-4,0.213702 -0.07703,0.4911579 -0.209422,0.7608695 C 16.59044,6.246358 16.246436,6.590382 15.898551,6.761213 15.41345,6.9994246 15.655353,6.9855072 12,6.9855072 8.3446472,6.9855072 8.5865499,6.9994246 8.1014493,6.761213 7.7535641,6.590382 7.4095597,6.246358 7.2388359,5.8985507 7.1064461,5.6288391 7.0300788,5.3513832 7.0294139,5.1376812 L 7.0289855,5 H 6.4068843 C 5.8401603,5 5.7698696,5.00558 5.617243,5.0626849 5.3883986,5.1483067 5.1483066,5.3883986 5.0626849,5.6172432 L 5,5.7847835 V 13 20.215217 l 0.062685,0.16754 c 0.083516,0.223216 0.3257618,0.468488 0.5463277,0.553151 l 0.1591033,0.06107 6.22355,0.0015 L 18.215217,21 Z M 15,4 V 3 H 12 9 v 1 1 h 3 3 z"
     id="path2" />
</svg>
